<?xml version="1.0" standalone="no"?>
<!DOCTYPE svg PUBLIC "-//W3C//DTD SVG 20010904//EN"
 "http://www.w3.org/TR/2001/REC-SVG-20010904/DTD/svg10.dtd">
<svg version="1.0" xmlns="http://www.w3.org/2000/svg"
 width="432.000000pt" height="432.000000pt" viewBox="0 0 432.000000 432.000000"
 preserveAspectRatio="xMidYMid meet">
<metadata>
Created by potrace 1.14, written by Peter Selinger 2001-2017
</metadata>
<g transform="translate(0.000000,432.000000) scale(0.100000,-0.100000)"
fill="#000000" stroke="none">
<path d="M1886 3585 c-111 -59 -255 -165 -344 -251 l-95 -91 -151 50 c-135 44
-161 50 -244 51 -91 1 -94 0 -118 -27 -50 -59 -25 -122 83 -212 62 -51 204
-150 228 -158 5 -2 -7 -39 -27 -83 -50 -109 -68 -187 -67 -285 1 -106 16 -153
52 -157 28 -4 29 -5 47 -137 l12 -80 -41 -80 c-23 -44 -41 -93 -41 -110 0 -36
24 -66 68 -84 24 -10 34 -25 52 -74 12 -34 36 -86 52 -116 26 -48 30 -61 24
-106 -3 -29 -13 -72 -21 -96 -15 -40 -14 -45 2 -56 33 -25 125 -53 192 -59
l69 -7 21 41 c11 22 23 59 27 81 4 23 10 44 15 47 10 6 1 -46 -18 -100 -19
-56 -17 -62 24 -79 l37 -14 -54 -35 c-65 -40 -92 -52 -185 -84 -71 -25 -260
-73 -372 -94 -38 -8 -72 -21 -87 -35 -54 -50 -125 -357 -133 -571 l-6 -142 25
-16 c121 -79 614 -155 1164 -177 360 -16 528 -5 799 51 313 65 469 114 510
160 28 31 31 136 10 300 -19 155 -43 251 -78 317 -37 71 -56 81 -177 93 -221
21 -380 65 -479 131 -34 22 -61 44 -61 47 0 4 31 14 69 24 82 19 179 65 185
87 15 47 29 227 30 379 1 149 3 171 16 166 64 -28 183 -64 225 -69 64 -8 130
9 150 38 34 52 -13 124 -163 246 -54 44 -112 92 -130 108 l-33 28 31 94 c64
190 92 469 53 528 -32 48 -287 264 -408 345 -184 122 -533 283 -640 294 -41 5
-59 1 -99 -21z m233 -51 c266 -106 463 -216 634 -353 93 -76 237 -206 256
-233 17 -25 16 -147 -4 -278 -13 -85 -40 -198 -51 -209 -2 -2 -33 22 -67 55
-64 59 -235 209 -292 257 -16 13 -68 51 -115 84 -258 180 -501 302 -795 399
-71 24 -130 47 -130 51 1 15 167 141 272 207 78 48 116 66 141 66 19 0 87 -21
151 -46z m-979 -228 c68 -15 342 -101 373 -118 16 -8 10 -15 -45 -46 -34 -20
-93 -68 -131 -105 l-67 -69 -68 40 c-97 58 -225 164 -246 205 -49 90 24 127
184 93z m536 -80 c185 -62 269 -98 434 -181 139 -71 356 -207 450 -284 69 -55
353 -306 368 -323 12 -15 8 -68 -5 -68 -3 0 -102 77 -220 172 -335 267 -422
325 -653 441 -279 140 -356 174 -548 242 -19 7 4 45 27 45 10 0 76 -20 147
-44z m-24 -90 c163 -62 536 -249 640 -321 46 -32 129 -92 185 -134 l102 -76
20 -85 c60 -258 81 -503 63 -728 -7 -81 -19 -176 -27 -212 -18 -81 -19 -113
-3 -108 16 6 34 89 54 253 26 219 10 480 -44 748 -10 48 -16 87 -14 87 3 0 40
-28 83 -62 73 -60 78 -66 93 -123 34 -136 47 -286 46 -530 0 -138 -6 -272 -13
-315 l-12 -75 -49 -23 c-89 -43 -192 -64 -338 -69 -76 -3 -138 -3 -138 -1 0 3
7 25 16 49 42 120 74 325 74 479 0 61 -3 81 -12 78 -9 -3 -15 -46 -20 -141 -7
-136 -31 -280 -66 -392 -15 -52 -21 -60 -44 -63 l-26 -3 24 75 c44 140 65 265
71 422 6 164 0 224 -22 224 -13 0 -13 -50 -1 -140 6 -37 -13 -225 -30 -315
-26 -130 -83 -295 -103 -295 -29 0 -143 29 -243 62 -101 32 -109 39 -86 81 21
40 58 191 73 297 21 147 30 536 16 690 -11 127 -56 386 -71 409 -10 17 -33 4
-26 -15 12 -31 55 -263 61 -331 l7 -73 -111 0 c-126 0 -122 -3 -161 103 -20
53 -38 73 -41 45 -1 -7 -1 -46 1 -85 l2 -73 -94 0 -95 0 -29 78 c-16 42 -34
76 -39 75 -14 -3 -23 -39 -24 -100 l-1 -53 -49 0 c-48 0 -50 1 -62 38 -54 160
64 462 230 583 51 38 142 89 158 89 7 0 41 -11 75 -24z m-302 -655 c0 -11 8
-28 18 -40 16 -20 25 -22 132 -19 l115 3 -1 33 c-2 40 1 40 21 2 l15 -29 123
-3 122 -3 3 -190 c4 -219 -18 -477 -50 -600 -28 -106 -34 -116 -42 -67 -12 76
-29 82 -151 46 -146 -42 -231 20 -315 229 -32 80 -41 94 -71 109 -73 35 -75
71 -9 180 34 57 38 70 30 97 -7 26 -16 93 -23 178 -1 5 12 10 29 13 26 5 29 9
32 48 3 40 22 51 22 13z m1676 -241 c97 -80 187 -161 200 -180 31 -45 32 -86
2 -96 -61 -20 -214 8 -309 57 l-36 18 -12 108 c-7 59 -18 139 -25 176 -7 37
-9 66 -5 65 5 -2 88 -68 185 -148z m-1596 -609 c0 -5 25 -22 55 -36 42 -21 65
-26 105 -23 56 3 59 -2 39 -63 -20 -60 -29 -64 -109 -50 -59 9 -119 30 -138
46 -2 2 1 20 7 42 5 21 13 50 16 66 5 25 25 39 25 18z m340 -40 c13 -25 13
-92 0 -126 -11 -30 -31 -39 -64 -31 l-23 6 19 72 c11 40 21 79 23 86 6 19 33
14 45 -7z m155 -222 c135 -46 263 -68 275 -48 7 10 47 12 181 11 213 -2 217
-3 167 -88 -28 -49 -43 -62 -98 -91 -126 -64 -182 -78 -315 -77 -110 0 -127 3
-210 33 -148 55 -160 63 -204 142 l-39 72 51 48 c34 32 57 46 67 42 8 -4 65
-23 125 -44z m-168 -237 c56 -97 146 -262 199 -367 54 -104 137 -259 186 -344
49 -85 87 -155 86 -156 -7 -7 -413 16 -555 30 -358 37 -554 71 -685 121 l-68
26 0 98 c0 187 80 544 131 587 8 6 59 21 114 33 172 35 325 79 404 114 42 19
78 34 81 34 3 1 51 -79 107 -176z m903 123 c89 -56 236 -98 405 -115 171 -18
171 -18 204 -55 39 -45 67 -137 91 -303 23 -153 25 -266 7 -302 -17 -34 -94
-64 -302 -115 -234 -58 -452 -93 -631 -101 l-151 -7 -26 34 c-53 70 -140 232
-131 245 95 132 413 623 448 692 14 28 31 52 36 52 6 0 28 -11 50 -25z m-715
-185 c149 -46 325 -35 463 30 36 17 66 29 68 27 6 -6 -364 -567 -374 -567 -4
0 -59 100 -122 223 -62 122 -129 247 -147 277 -18 30 -33 58 -33 63 0 4 17 -1
38 -12 20 -10 69 -29 107 -41z"/>
<path d="M1380 2291 c-16 -30 -12 -66 9 -92 16 -20 23 -22 38 -13 21 13 29 74
13 104 -14 25 -46 26 -60 1z"/>
<path d="M1375 1800 c-3 -6 0 -13 8 -16 25 -9 100 0 105 14 5 15 -104 17 -113
2z"/>
</g>
</svg>
